<svg xmlns="http://www.w3.org/2000/svg" width="1200" height="630" viewBox="0 0 1200 630">
  <defs>
    <linearGradient id="bg" x1="0%" y1="0%" x2="100%" y2="100%">
      <stop offset="0%" style="stop-color:#1a1408;stop-opacity:1" />
      <stop offset="100%" style="stop-color:#2d2210;stop-opacity:1" />
    </linearGradient>
    <linearGradient id="accent-glow" x1="0%" y1="0%" x2="100%" y2="100%">
      <stop offset="0%" style="stop-color:#c47a1e;stop-opacity:0.15" />
      <stop offset="100%" style="stop-color:#c47a1e;stop-opacity:0" />
    </linearGradient>
  </defs>
  <rect width="1200" height="630" fill="url(#bg)"/>
  <g stroke="#c47a1e" stroke-opacity="0.06" stroke-width="1">
    <line x1="0" y1="105" x2="1200" y2="105"/><line x1="0" y1="210" x2="1200" y2="210"/>
    <line x1="0" y1="315" x2="1200" y2="315"/><line x1="0" y1="420" x2="1200" y2="420"/>
    <line x1="0" y1="525" x2="1200" y2="525"/>
    <line x1="200" y1="0" x2="200" y2="630"/><line x1="400" y1="0" x2="400" y2="630"/>
    <line x1="600" y1="0" x2="600" y2="630"/><line x1="800" y1="0" x2="800" y2="630"/>
    <line x1="1000" y1="0" x2="1000" y2="630"/>
  </g>
  <ellipse cx="100" cy="100" rx="400" ry="300" fill="url(#accent-glow)"/>
  <rect x="80" y="80" width="4" height="470" rx="2" fill="#c47a1e" opacity="0.9"/>
  <text x="108" y="138" font-family="Arial Black, sans-serif" font-weight="900" font-size="22" fill="#c47a1e" letter-spacing="6">MARINAI</text>
  <text x="108" y="260" font-family="Arial Black, sans-serif" font-weight="900" font-size="72" fill="#f5ede0" letter-spacing="-2">Stop Losing Clients</text>
  <text x="108" y="348" font-family="Arial Black, sans-serif" font-weight="900" font-size="72" fill="#c47a1e" letter-spacing="-2">to Better Websites.</text>
  <text x="108" y="420" font-family="Arial, sans-serif" font-size="26" fill="#a89070">Professional landing pages for restaurants, salons, plumbers &amp; consultants.</text>
  <rect x="108" y="462" width="220" height="54" rx="8" fill="#c47a1e" opacity="0.15" stroke="#c47a1e" stroke-width="1.5" stroke-opacity="0.6"/>
  <text x="218" y="496" font-family="Arial Black, sans-serif" font-weight="900" font-size="22" fill="#c47a1e" text-anchor="middle" letter-spacing="1">€199 ONE-TIME</text>
  <text x="1120" y="590" font-family="Arial, sans-serif" font-size="18" fill="#a89070" opacity="0.6" text-anchor="end" letter-spacing="1">lp.marinai.xyz</text>
</svg>
